# xmcd
#
# Track frame offsets:
#	150
#	8786
#	24258
#	37267
#	53141
#	70655
#	85278
#	100227
#	120785
#	148594
#	166075
#	181460
#	197033
#	212174
#	229016
#	242348
#	258729
#	271494
#	284468
#	298022
#
# Disc length: 4125 seconds
#
# Revision: 3
# Processed by: cddbd v1.5.2PL0 Copyright (c) Steve Scherf et al.
# Submitted via: audiograbber 1.83.01
#
DISCID=1d101b14
DTITLE=Various Artist - Country Music Messe 2010 CD 1
DYEAR=2010
DGENRE=
TTITLE0=REBOUND - Happy Go Lucky Guitar
TTITLE1=Rebel Bunch - Come Baby
TTITLE2=Chick ´n´ Roosters - Standing In The Line
TTITLE3=Mark Merritt - The Still
TTITLE4=Jefferson Ross - I Was here
TTITLE5=Dean Wolf - Went Home With Bo
TTITLE6=SongDogs - Restless No More
TTITLE7=Hermann Lammers Meyer - 1961 - A Love Song
TTITLE8=Allan Frank - The Road So Far
TTITLE9=Jolina Carl - Same Old Moon
TTITLE10=The Lennerockers - The Quarter
TTITLE11=Heinrich Doc Wolf - Cash Cadi(llac)
TTITLE12=T. Marshal Kane - Back Up The Country
TTITLE13=Barry P. Foley - Crooked Road
TTITLE14=Andres Oscar - You´re An Angel, That´s The Truth
TTITLE15=Bluegrass Breakdown - Just A Bad Habit
TTITLE16=Lisa Karim - Unbeschreiblich
TTITLE17=Pretty Rose - So eine Powerfrau
TTITLE18=Blue Steel - Ridin´ The Rodeo
TTITLE19=Lynn and George - Unknown Stuntman
EXTD=
EXTT0=
EXTT1=
EXTT2=
EXTT3=
EXTT4=
EXTT5=
EXTT6=
EXTT7=
EXTT8=
EXTT9=
EXTT10=
EXTT11=
EXTT12=
EXTT13=
EXTT14=
EXTT15=
EXTT16=
EXTT17=
EXTT18=
EXTT19=
PLAYORDER=
